<?xml version="1.0" standalone="no"?>
<!DOCTYPE svg PUBLIC "-//W3C//DTD SVG 20010904//EN"
 "http://www.w3.org/TR/2001/REC-SVG-20010904/DTD/svg10.dtd">
<svg version="1.0" xmlns="http://www.w3.org/2000/svg"
 width="89.000000pt" height="89.000000pt" viewBox="0 0 89.000000 89.000000"
 preserveAspectRatio="xMidYMid meet">
<metadata>
Created by potrace 1.11, written by Peter Selinger 2001-2013
</metadata>
<g transform="translate(0.000000,89.000000) scale(0.100000,-0.100000)"
fill="#000000" stroke="none">
<path d="M10 445 l0 -435 435 0 435 0 0 435 0 435 -435 0 -435 0 0 -435z m810
0 l0 -375 -375 0 -375 0 0 375 0 375 375 0 375 0 0 -375z"/>
<path d="M80 445 l0 -365 365 0 365 0 0 365 0 365 -365 0 -365 0 0 -365z m386
294 c39 -10 45 -15 40 -33 -3 -12 -6 -33 -6 -48 0 -37 -16 -36 -24 2 -11 56
-119 80 -184 40 -50 -30 -72 -75 -72 -144 0 -161 115 -231 277 -169 13 5 13 3
4 -15 -23 -43 -181 -58 -256 -23 -50 23 -68 43 -96 106 -27 60 -22 146 11 199
22 36 71 72 118 86 40 12 137 12 188 -1z m286 -229 c-4 -43 -19 -54 -24 -17
-3 20 -9 22 -65 25 l-63 3 0 -76 0 -75 50 0 c45 0 50 3 56 25 12 46 24 25 24
-41 0 -48 -3 -65 -12 -62 -7 3 -14 14 -16 26 -3 19 -10 22 -53 22 l-50 0 3
-82 c3 -83 3 -83 31 -86 16 -2 27 -8 25 -14 -5 -15 -188 -16 -188 -1 0 6 10
13 23 15 22 3 22 4 22 178 0 174 0 175 -22 178 -13 2 -23 8 -23 13 0 5 61 9
143 9 l143 0 -4 -40z"/>
</g>
</svg>
